<?xml version="1.0" encoding="UTF-8" standalone="no"?>
<!-- Created with Inkscape (http://www.inkscape.org/) -->

<svg
   width="78.6604mm"
   height="56.712742mm"
   viewBox="0 0 78.6604 56.712742"
   version="1.1"
   id="svg16827"
   xml:space="preserve"
   xmlns:inkscape="http://www.inkscape.org/namespaces/inkscape"
   xmlns:sodipodi="http://sodipodi.sourceforge.net/DTD/sodipodi-0.dtd"
   xmlns="http://www.w3.org/2000/svg"
   xmlns:svg="http://www.w3.org/2000/svg"><sodipodi:namedview
     id="namedview16829"
     pagecolor="#ffffff"
     bordercolor="#000000"
     borderopacity="0.25"
     inkscape:showpageshadow="2"
     inkscape:pageopacity="0.0"
     inkscape:pagecheckerboard="0"
     inkscape:deskcolor="#d1d1d1"
     inkscape:document-units="mm"
     showgrid="false" /><defs
     id="defs16824" /><g
     inkscape:label="Layer 1"
     inkscape:groupmode="layer"
     id="layer1"
     transform="translate(-587.5561,86.976255)"><path
       style="opacity:1;fill:#ffffff;fill-opacity:1;stroke-width:0.600001;stroke-linecap:round;stroke-linejoin:round"
       d="m 587.57126,-86.973003 c -0.47297,0.289358 10.28169,17.764047 15.41326,27.960316 0.2571,0.510858 0.69261,0.804397 1.21282,0.791576 9.30062,-0.229228 22.04916,-0.605333 22.04916,-0.605333 0,0 6.80154,16.260351 11.10054,26.086092 1.5299,3.496727 3.09433,2.795197 5.594,0.931491 7.93153,-5.913611 19.45745,-14.381307 21.93299,-17.059055 0.9369,-1.01343 1.54184,-1.602296 1.28193,-1.877323 -0.25991,-0.275027 -1.0389,0.333059 -1.7025,0.714841 -5.49773,3.162971 -19.43824,11.758889 -23.47265,14.375798 0,0 -7.0109,-16.987719 -11.44245,-25.014967 -0.62734,-1.136357 -1.22731,-1.381272 -2.63533,-1.310386 -7.3829,0.37169 -22.14071,1.331031 -22.14071,1.331031 -6.01756,-9.486975 -16.74296,-26.598227 -17.19106,-26.324081 z"
       id="path27001"
       sodipodi:nodetypes="ssscssszscsscs" /></g></svg>
