<?xml version="1.0" encoding="UTF-8" standalone="no"?>
<!-- Created with Inkscape (http://www.inkscape.org/) -->

<svg
   width="55.090179mm"
   height="77.543076mm"
   viewBox="0 0 55.090179 77.543076"
   version="1.1"
   id="svg16827"
   xml:space="preserve"
   xmlns:inkscape="http://www.inkscape.org/namespaces/inkscape"
   xmlns:sodipodi="http://sodipodi.sourceforge.net/DTD/sodipodi-0.dtd"
   xmlns="http://www.w3.org/2000/svg"
   xmlns:svg="http://www.w3.org/2000/svg"><sodipodi:namedview
     id="namedview16829"
     pagecolor="#ffffff"
     bordercolor="#000000"
     borderopacity="0.25"
     inkscape:showpageshadow="2"
     inkscape:pageopacity="0.0"
     inkscape:pagecheckerboard="0"
     inkscape:deskcolor="#d1d1d1"
     inkscape:document-units="mm"
     showgrid="false" /><defs
     id="defs16824" /><g
     inkscape:label="Layer 1"
     inkscape:groupmode="layer"
     id="layer1"
     transform="translate(-445.09977,106.486)"><path
       id="path25669"
       style="opacity:1;fill:#ffffff;fill-opacity:1;stroke-width:0.600001;stroke-linecap:round;stroke-linejoin:round"
       d="m 456.78124,-106.48601 c -4.51237,22.037959 -8.4107,43.888891 -11.68146,65.596516 17.26525,-2.572116 33.49635,-5.80706 49.91892,-8.989632 1.09939,3.481195 2.90437,13.647062 5.17126,20.93619 -0.66798,-23.101068 -7.38103,-44.924677 -13.25501,-67.558667 -10.56903,-3.114382 -20.52024,-6.468527 -30.15371,-9.984407 z m 1.25574,2.12184 c 8.91607,2.75974 17.90737,5.858004 27.00197,9.421128 2.8861,14.61762 5.60034,29.192274 9.94719,44.175081 -14.94017,1.462177 -29.88035,2.789357 -44.82052,4.913912 3.31707,-20.511777 5.48816,-39.356694 7.87136,-58.510121 z"
       sodipodi:nodetypes="ccccccccccc" /></g></svg>
