<?xml version="1.0" encoding="UTF-8" standalone="no"?>
<!-- Created with Inkscape (http://www.inkscape.org/) -->

<svg
   width="79.408752mm"
   height="48.927532mm"
   viewBox="0 0 79.408752 48.927532"
   version="1.1"
   id="svg16827"
   xml:space="preserve"
   xmlns:inkscape="http://www.inkscape.org/namespaces/inkscape"
   xmlns:sodipodi="http://sodipodi.sourceforge.net/DTD/sodipodi-0.dtd"
   xmlns="http://www.w3.org/2000/svg"
   xmlns:svg="http://www.w3.org/2000/svg"><sodipodi:namedview
     id="namedview16829"
     pagecolor="#ffffff"
     bordercolor="#000000"
     borderopacity="0.25"
     inkscape:showpageshadow="2"
     inkscape:pageopacity="0.0"
     inkscape:pagecheckerboard="0"
     inkscape:deskcolor="#d1d1d1"
     inkscape:document-units="mm"
     showgrid="false" /><defs
     id="defs16824" /><g
     inkscape:label="Layer 1"
     inkscape:groupmode="layer"
     id="layer1"
     transform="translate(-268.48322,97.866368)"><path
       style="fill:#fcfcfc;fill-opacity:1;stroke-width:0.264583"
       d="m 308.64852,-77.994045 c -4.78844,-5.757087 -8.40114,-10.23332 -13.01043,-15.914766 -8.33293,2.263132 -22.32253,6.136896 -27.15486,7.432089 15.16388,-6.659093 19.21741,-8.111597 27.97848,-11.389649 0.40744,0.307285 0.53184,0.425282 0.95314,0.748757 16.73224,3.406732 32.72759,7.659992 47.42576,12.508981 0.83339,6.468038 1.93707,12.890888 3.05137,19.314588 -6.86908,5.47727 -13.73308,10.81281 -20.93632,16.35521 -7.17415,-11.13505 -11.99494,-18.66668 -18.30714,-29.05521 z m 37.20374,11.8596 c -0.9603,-5.48269 -1.7505,-12.453809 -2.3972,-17.569401 -14.41002,-3.370011 -29.32477,-5.678451 -41.63975,-8.992393 l -0.0837,0.08372 -0.0837,0.08372 c 3.43422,3.862718 6.86844,7.725428 10.30267,11.588139 5.95335,9.743495 10.66438,18.216265 16.0931,26.463105 6.00482,-3.67801 12.31489,-8.44123 17.80858,-11.65689 z"
       id="path17148"
       sodipodi:nodetypes="ccccccccccccccccc" /></g></svg>
