<?xml version="1.0" encoding="UTF-8" standalone="no"?>
<!-- Created with Inkscape (http://www.inkscape.org/) -->

<svg
   width="59.999996mm"
   height="59.999996mm"
   viewBox="0 0 59.999996 59.999996"
   version="1.1"
   id="svg5"
   xml:space="preserve"
   xmlns:inkscape="http://www.inkscape.org/namespaces/inkscape"
   xmlns:sodipodi="http://sodipodi.sourceforge.net/DTD/sodipodi-0.dtd"
   xmlns="http://www.w3.org/2000/svg"
   xmlns:svg="http://www.w3.org/2000/svg"><sodipodi:namedview
     id="namedview7"
     pagecolor="#ffffff"
     bordercolor="#000000"
     borderopacity="0.25"
     inkscape:showpageshadow="2"
     inkscape:pageopacity="0.0"
     inkscape:pagecheckerboard="0"
     inkscape:deskcolor="#d1d1d1"
     inkscape:document-units="mm"
     showgrid="false" /><defs
     id="defs2" /><g
     inkscape:label="Layer 1"
     inkscape:groupmode="layer"
     id="layer1"
     transform="translate(106.76713,-44.488024)"><circle
       style="fill:#000000;fill-opacity:1;stroke-width:0.178722;stroke-linecap:round;stroke-linejoin:round"
       id="path236"
       cx="-76.767136"
       cy="74.488022"
       r="30"
       inkscape:export-filename="volans plate.svg"
       inkscape:export-xdpi="96"
       inkscape:export-ydpi="96" /><path
       style="fill:#fcfcfc;fill-opacity:1;stroke-width:0.113288"
       d="m -77.286603,67.381329 c -2.050301,-2.465053 -3.597176,-4.381674 -5.570769,-6.814339 -3.56797,0.969021 -9.557997,2.627678 -11.62709,3.18225 6.492827,-2.851271 8.228456,-3.4732 11.979746,-4.876787 0.174456,0.131572 0.227721,0.182096 0.408112,0.320601 7.164363,1.458684 14.013206,3.279833 20.306627,5.356059 0.356839,2.769466 0.82941,5.519584 1.306527,8.270065 -2.941183,2.345242 -5.880191,4.629798 -8.964454,7.002927 -3.071807,-4.767773 -5.135959,-7.992645 -7.838699,-12.440776 z m 15.929792,5.078009 c -0.411179,-2.347562 -0.749524,-5.332436 -1.026426,-7.522816 -6.170042,-1.442961 -12.556197,-2.431382 -17.82919,-3.850337 l -0.03584,0.03585 -0.03584,0.03585 c 1.470454,1.653928 2.940909,3.307852 4.411368,4.961777 2.549088,4.171941 4.566243,7.799788 6.890697,11.330896 2.571127,-1.57484 5.272955,-3.614342 7.625228,-4.991214 z"
       id="path17148"
       sodipodi:nodetypes="ccccccccccccccccc" /><text
       xml:space="preserve"
       style="font-size:7.22178px;fill:#ffffff;fill-opacity:1;stroke-width:0.454916;stroke-linecap:round;stroke-linejoin:round"
       x="-90.816292"
       y="90.707901"
       id="text2677"><tspan
         sodipodi:role="line"
         id="tspan2675"
         style="font-style:normal;font-variant:normal;font-weight:normal;font-stretch:normal;font-family:'Maple Mono';-inkscape-font-specification:'Maple Mono';stroke-width:0.454916"
         x="-90.816292"
         y="90.707901">Volans</tspan></text></g></svg>
